<svg id="Layer_1" data-name="Layer 1" xmlns="http://www.w3.org/2000/svg" viewBox="0 0 707.01 643.74"><title>syria_map</title><g id="D7PZ96.tif"><path d="M708.09,39a36.86,36.86,0,0,1-7.42,12.47c-8.3,8.83-15.36,18.55-22.17,28.64-11,16.24-27.46,25-46.5,29-6.68,1.44-13.56,2.9-19.32,6.56-10.74,6.79-15,17.8-16.94,29.73-2.21,13.35,1.39,25.78,6.93,37.78,2.24,4.84,4.75,9.56,6.92,14.44,5.65,12.67,3.59,24.77-2.37,36.83-4,8-9.06,15.59-10.63,24.81-2.08,12.11-1.6,24.17-1,36.33,1.08,20.52,2.57,41.07-3.86,61.18-5.28,16.49-15.78,28.33-30.9,36.28-25.18,13.24-49.67,27.73-74,42.38s-48.14,30.07-72.18,45.16c-28.51,17.9-56.92,36-85.57,53.67-33,20.41-66.25,40.54-99.45,60.7q-40.71,24.74-81.55,49.26a8.36,8.36,0,0,0-1.48,1c-8.85,8.34-19.12,8.51-29.83,4.9a68.75,68.75,0,0,0-21.41-4c-6.33-.08-11.21-3.78-15.43-8.33-5-5.45-10.45-10.72-17.92-12.3a21.57,21.57,0,0,1-11.92-7.09c-7.62-8.32-17.58-13.82-26-21.28-5.63-5-8.5-4.41-13.74,1.43-2.7,3-3.63.81-4.5-1.08-1.93-4.22-2.39-8.82-2.5-13.4-.23-9.44-.11-18.87,3.44-27.86a15,15,0,0,0,.53-9.45c-1.76-7,.17-12.64,7-15.87,5.6-2.67,9.54-7,12.89-12,5.3-7.83,11.12-15,20.39-18.46,1.89-.72,2.38-3,1.94-4.88a13.47,13.47,0,0,0-3.37-6c-6.22-6.75-6-12.45.49-18.84,1.67-1.65,3.76-2.87,5.41-4.54,1.81-1.83,4.41-3.76,4.79-6,.87-5,3.71-3.12,6.17-2.41a67.36,67.36,0,0,0,20.41,2.46c1.12,0,2.33.21,3-1s-.52-2.12-1-2.94c-1.11-1.77-3.06-2.6-4.9-3.54-3.81-1.93-4.27-5.19-1-7.9a28.22,28.22,0,0,0,5.94-7c3.25-5.21,8.21-6.69,13.91-5.89,2.12.3,3.52,1.21,4.13-2,.63-3.43,3.73-5,6.8-6.54,7.33-3.55,7.83-5.12,4-12.37-3.09-5.8-5.33-11.53-4.08-18.44,1-5.43-3-8.37-7.29-11-4.51-2.77-9.51-4.09-14.49-5.28-3-.72-2.57-1.94-1.43-3.59,2-2.9,4.48-5.53,6.38-8.51,2.25-3.53,1.37-5.78-2.44-7.42a11.49,11.49,0,0,1-2.46-1c-2.54-2-4.25-3.24-7.2.35-2.61,3.19-7.6,3.22-11.73,3.58a53.72,53.72,0,0,1-16.88-1c-13.82-3.28-17.78-10.26-17.1-21.79.62-10.7,0-21.24-.37-31.85a26.14,26.14,0,0,1,4.46-15.46,59.47,59.47,0,0,0,5-9.93c1.77-4.42.87-7.42-3.47-8.19-4-.7-1.94-2.58-1.37-3.68,2.56-4.93,1.75-9.22-2.09-12.95s-7.89-7.37-11.93-10.94c-2.59-2.28-3.08-4.38-1.05-7.53,4.95-7.66,5.2-16.65,5.93-25.32.75-8.95,6-14.15,13-18.44,2.06-1.25,3.15-1.14,4.58,1,2.47,3.71,5,7.47,8.89,10,1.43.93,2.9,2.12,4.48,2.38s3.84.8,5.42-.42c2-1.54-.23-3-.55-4.41-1.67-7.36,1.84-12.21,9.53-11.81,3.76.19,5.6-2.55,8.44-3.69,3.91-1.58,1.52-4.83,1.49-7.4,0-1.66-.4-3.31-.46-5-.46-12.92,4.36-21.17,21.37-19.39,2.66.28,5.32.56,8,1,4.23.71,4.67-1.9,4.47-5-.29-4.29-3.07-7.16-6-10-3.5-3.39-6.21-7.2-5.44-12.42a18.38,18.38,0,0,1,1.51-5.45c2.82-5.69,3.61-11.68,3.46-17.93a51.35,51.35,0,0,1,.89-13C115.37,84,118,80.93,125.21,80.85a52.55,52.55,0,0,1,24.45,5.22c2.53,1.26,3.68,3,3.77,5.12.17,3.68,2.45,6.17,4.19,8.89,1.48,2.31,3.68,3,6.9,2.73,10.42-.78,20.91-2.48,31.35.69,2.73.82,5.94.26,8.91.08s4.75-2.22,6-4.92c5.83-12.55,10.35-14.73,24.84-13,10,1.19,18.92-.82,24.84-9.91,4.8-7.39,12.22-8.18,19.91-7.9,12,.44,23,4.78,33.26,10.51,33.92,19,69.65,20.63,106.47,11.74a286.15,286.15,0,0,0,49.72-16.9C481.38,68.05,491.93,61,502.7,54.4a202.41,202.41,0,0,1,28.8-15c16-6.58,31.78-4.65,47.81,0,12.92,3.76,26,7.86,39.75,5.5,11.77-2,23.48-4.31,34.88-8.21a76.51,76.51,0,0,0,14.75-6.33c6.62-4,12.35-9.21,15.61-16.69,1.72-4,2.16-3.87,4.87-.52s5.09,6,10,4.57c3.12-.88,4.85,1.15,5.48,4.36,1.08,5.5,2.45,11,3.69,16.42" transform="translate(-2.33 -9.63)" fill="none" stroke="#000" stroke-linecap="round" stroke-linejoin="round" stroke-width="2"/></g></svg>