<svg id="Layer_1" data-name="Layer 1" xmlns="http://www.w3.org/2000/svg" viewBox="0 0 707.01 643.73"><title>syria_map</title><g id="D7PZ96.tif"><path d="M129,653.36a39.39,39.39,0,0,1-12.57-2.28,67.35,67.35,0,0,0-21.1-4c-7.29-.09-12.46-4.67-16.15-8.65-4.85-5.24-10.19-10.47-17.4-12a22.45,22.45,0,0,1-12.45-7.4c-4.45-4.86-9.84-8.84-15.06-12.69-3.62-2.68-7.38-5.45-10.82-8.51-5.08-4.53-7.27-4.29-12.34,1.35-.78.87-2,2-3.37,1.78S5.64,599.27,5,598l0-.09c-2.12-4.62-2.5-9.57-2.6-13.8-.22-9.23-.13-19,3.51-28.24A14,14,0,0,0,6.4,547c-2-7.86.62-13.74,7.49-17,4.71-2.25,8.57-5.84,12.5-11.65,6-8.84,11.82-15.43,20.86-18.84,1.32-.5,1.66-2.24,1.32-3.71a12.3,12.3,0,0,0-3.13-5.57C38.83,483,39,476.79,46,470a29.07,29.07,0,0,1,2.72-2.28,25,25,0,0,0,2.68-2.24c.39-.4.82-.8,1.25-1.21,1.49-1.38,3-2.82,3.27-4.23.33-1.94,1-3.18,2-3.78,1.39-.81,3-.26,4.37.24.35.12.7.24,1,.34a66.05,66.05,0,0,0,20.1,2.42H84c1,0,1.33,0,1.56-.47s.08-.54-.51-1.28c-.18-.23-.36-.45-.5-.67-.84-1.35-2.34-2.09-3.92-2.88l-.58-.29c-2.19-1.12-3.51-2.72-3.71-4.51s.72-3.55,2.55-5.06a26.87,26.87,0,0,0,5.73-6.76c3.21-5.14,8.22-7.29,14.9-6.35.35.05.69.12,1,.18a2.75,2.75,0,0,0,1.41.09c.1-.07.37-.36.58-1.5.76-4.07,4.57-5.91,7.35-7.26,3.15-1.52,5.2-2.76,5.66-4.19s-.42-3.6-2.13-6.81c-3-5.56-5.52-11.72-4.19-19.09.87-4.78-2.73-7.43-6.83-9.95-4.36-2.68-9.2-4-14.19-5.16-1-.24-2.48-.71-2.93-1.9s.43-2.53.91-3.23c.91-1.3,1.9-2.55,2.86-3.76a55.37,55.37,0,0,0,3.5-4.72c.93-1.45,1.25-2.6,1-3.49s-1.25-1.74-3-2.47c-.26-.11-.53-.2-.81-.29a6,6,0,0,1-1.88-.87c-2.42-1.91-3.42-2.7-5.8.2-2.62,3.19-7.13,3.53-11.11,3.83l-1.31.1a54.73,54.73,0,0,1-17.2-1c-13.45-3.19-18.63-9.8-17.87-22.82.51-8.73.17-17.53-.16-26l-.21-5.71a27.26,27.26,0,0,1,4.62-16,58.67,58.67,0,0,0,4.89-9.76c.88-2.19,1-3.95.4-5.06A4.16,4.16,0,0,0,41,272.44c-1.08-.18-2.56-.57-3.07-1.74s.23-2.2.69-2.91c.11-.17.22-.33.29-.47,2.31-4.44,1.69-8.29-1.9-11.77-4.14-4-8.33-7.77-11.89-10.91-3.09-2.73-3.46-5.37-1.23-8.82,4.34-6.73,5-14.7,5.57-22.4.07-.82.13-1.65.2-2.47.86-10.18,7.3-15.42,13.49-19.2,2.59-1.58,4.25-1.22,5.93,1.29,2.27,3.4,4.84,7.25,8.6,9.69l.84.56A9.19,9.19,0,0,0,61.74,205l.47.08c1.51.26,3.07.54,4.17-.31.58-.45.62-.59-.14-1.79a5.46,5.46,0,0,1-.78-1.61c-.92-4.09-.36-7.51,1.63-9.87s5-3.36,8.93-3.16c2.11.11,3.49-.84,5.09-1.93A15.7,15.7,0,0,1,84,184.69c2-.79,1.8-1.87,1.27-4a11.12,11.12,0,0,1-.4-2.42,24.71,24.71,0,0,0-.23-2.5c-.1-.8-.2-1.62-.23-2.45-.28-7.71,1.35-13.1,5-16.48s9.46-4.77,17.5-3.94c2.85.3,5.42.58,8,1a3.19,3.19,0,0,0,2.64-.34c.76-.68.74-2.38.66-3.6-.26-3.79-2.6-6.35-5.65-9.3-3.32-3.23-6.61-7.34-5.73-13.29a19.75,19.75,0,0,1,1.6-5.75c2.46-4.93,3.52-10.48,3.36-17.46a52.19,52.19,0,0,1,.92-13.2c1.57-6.78,4.21-11,12.47-11.09a53.23,53.23,0,0,1,24.9,5.32c2.76,1.37,4.22,3.39,4.33,6s1.5,4.68,3,6.8c.37.53.73,1.06,1.08,1.6,1.17,1.84,2.9,2.49,6,2.26,1.64-.12,3.28-.27,4.93-.41,8.76-.78,17.82-1.58,26.79,1.14a18.55,18.55,0,0,0,6.6.2c.66-.06,1.32-.12,2-.16,2.29-.13,3.79-1.39,5.16-4.34,6-12.84,10.8-15.37,25.87-13.56,11.06,1.32,18.87-1.77,23.88-9.47s13-8.63,20.79-8.35c10.76.4,21.47,3.78,33.71,10.63,31.2,17.49,65.79,21.3,105.75,11.64A287,287,0,0,0,469.43,72.3c9.27-4.14,18.06-9.62,26.56-14.91q3.09-1.94,6.19-3.84a201.6,201.6,0,0,1,28.94-15.1c17.85-7.32,35.28-3.87,48.47,0l1.71.5c12.13,3.54,24.67,7.19,37.59,5s24-4.48,34.73-8.16a76.89,76.89,0,0,0,14.56-6.25c7.41-4.44,12.38-9.75,15.2-16.23.9-2.06,1.58-3.43,2.81-3.59s2.25,1,3.76,2.85c2.68,3.32,4.75,5.41,8.95,4.23a4.82,4.82,0,0,1,4,.39c1.36.83,2.31,2.47,2.76,4.74.75,3.85,1.66,7.75,2.55,11.53.38,1.62.76,3.24,1.12,4.86a1,1,0,0,1-.24.9.48.48,0,0,1-.05.17,37.53,37.53,0,0,1-7.62,12.8c-8.83,9.39-16.11,19.69-22.07,28.52-10.13,15-26,24.93-47.12,29.46-6.62,1.42-13.4,2.88-19,6.42-8.9,5.63-14.13,14.86-16.48,29.05-1.88,11.38.23,22.86,6.85,37.2,1,2.16,2.07,4.35,3.11,6.46,1.29,2.6,2.61,5.29,3.82,8,5.25,11.78,4.49,23.75-2.4,37.69-1,1.92-2,3.85-3,5.71-3.14,5.87-6.39,11.95-7.57,18.82-2,11.75-1.61,23.31-.94,36.1l.16,3c1,19.3,2.11,39.24-4.07,58.56-5.2,16.23-15.76,28.63-31.38,36.85-26.14,13.75-51.9,29.07-74,42.36-17,10.2-34,21-50.4,31.4q-10.86,6.89-21.76,13.75-13.33,8.37-26.65,16.78c-19.28,12.15-39.21,24.71-58.92,36.89-29.63,18.3-59.89,36.68-89.15,54.45l-10.31,6.26c-18.48,11.22-37.31,22.57-55.52,33.55q-13,7.85-26,15.7l-.29.17a5.63,5.63,0,0,0-1,.71A25.71,25.71,0,0,1,129,653.36ZM17.74,592.72c2.16,0,4.37,1.23,7.07,3.63,3.38,3,7.09,5.75,10.68,8.4,5.29,3.91,10.76,8,15.35,13a20.52,20.52,0,0,0,11.39,6.8c7.78,1.64,13.38,7.12,18.45,12.59s9.61,7.95,14.71,8a69.45,69.45,0,0,1,21.71,4.09c12,4,21.15,2.55,28.82-4.69a7.14,7.14,0,0,1,1.39-1l.26-.16,26-15.7c18.21-11,37-22.33,55.51-33.55l10.31-6.26c29.26-17.77,59.52-36.14,89.14-54.44,19.7-12.17,39.63-24.74,58.9-36.88l26.66-16.79c7.26-4.55,14.51-9.15,21.75-13.74,16.45-10.43,33.46-21.21,50.44-31.42,22.12-13.3,47.9-28.65,74.09-42.42,15.35-8.08,25.3-19.75,30.4-35.69,6.07-19,5-38.73,4-57.84l-.16-3c-.68-12.92-1.08-24.59,1-36.55,1.23-7.18,4.56-13.41,7.78-19.43,1-1.84,2-3.75,2.94-5.65,6.6-13.36,7.35-24.79,2.36-36-1.19-2.67-2.51-5.34-3.78-7.93-1-2.12-2.13-4.31-3.14-6.5-6.8-14.73-9-26.56-7-38.37,1.54-9.3,5-22.58,17.38-30.41,5.9-3.73,12.86-5.23,19.59-6.67,21-4.5,36-13.86,45.94-28.64,6-8.9,13.35-19.27,22.27-28.77a35.59,35.59,0,0,0,7.22-12.14.92.92,0,0,1,.13-.24c-.34-1.51-.7-3-1-4.53-.89-3.79-1.8-7.71-2.57-11.6a5,5,0,0,0-1.83-3.41,2.89,2.89,0,0,0-2.4-.18c-5.78,1.63-8.7-2-11.05-4.9a13.25,13.25,0,0,0-1.93-2.09A10.18,10.18,0,0,0,685.21,14c-3,6.87-8.22,12.48-16,17.15a78.62,78.62,0,0,1-14.94,6.42c-10.91,3.72-21.9,6-35,8.25-13.36,2.29-26.13-1.43-38.48-5l-1.71-.5c-19.38-5.62-33.48-5.64-47.15,0a196.86,196.86,0,0,0-28.66,15c-2.06,1.26-4.12,2.54-6.18,3.82-8.55,5.33-17.4,10.85-26.8,15a289,289,0,0,1-49.89,17c-40.47,9.78-75.54,5.9-107.2-11.84-11.95-6.7-22.37-10-32.81-10.38-8.32-.31-14.74.84-19,7.44-5.47,8.4-13.9,11.79-25.8,10.36C221.3,85,217.29,87,211.69,99.08c-1.13,2.44-2.94,5.27-6.85,5.5l-1.91.15a19.67,19.67,0,0,1-7.35-.28c-8.6-2.61-17.46-1.82-26-1.06l-5,.42c-2.57.19-5.77,0-7.81-3.19-.33-.52-.68-1-1-1.54-1.56-2.25-3.17-4.59-3.32-7.84-.08-1.84-1.13-3.24-3.22-4.28a51.3,51.3,0,0,0-24-5.11c-6.32.07-8.88,2.39-10.55,9.55a51.11,51.11,0,0,0-.86,12.69c.17,7.32-1,13.16-3.57,18.4a17.76,17.76,0,0,0-1.41,5.15c-.75,5.06,2.18,8.68,5.15,11.56,2.64,2.56,5.92,5.75,6.24,10.61.13,1.88.07,4-1.3,5.22-1,.88-2.39,1.15-4.32.82-2.54-.43-5.08-.7-7.89-1-7.44-.77-12.65.34-15.94,3.41s-4.58,7.85-4.33,15c0,.74.12,1.48.22,2.27a26.64,26.64,0,0,1,.24,2.73,9.08,9.08,0,0,0,.34,2c.48,2,1.2,4.91-2.46,6.38A13.2,13.2,0,0,0,82.24,188c-1.66,1.14-3.53,2.42-6.32,2.28-3.28-.18-5.81.67-7.3,2.45s-2,4.68-1.21,8.14a4.35,4.35,0,0,0,.52,1c.63,1,1.78,2.81-.33,4.43-1.79,1.39-4,1-5.74.7l-.45-.08a10.7,10.7,0,0,1-4.06-2l-.81-.54c-4.1-2.66-6.8-6.7-9.18-10.26-1.08-1.62-1.53-1.72-3.21-.69-8.17,5-11.92,10.27-12.55,17.66-.06.82-.13,1.64-.19,2.46-.63,7.95-1.27,16.17-5.89,23.32-1.68,2.61-1.46,4.18.87,6.24,3.58,3.16,7.8,6.93,12,11s5,8.87,2.29,14.12a7,7,0,0,1-.39.65,3.16,3.16,0,0,0-.53,1h0s.24.32,1.57.56a6,6,0,0,1,4.52,2.76c.93,1.69.84,4-.29,6.79a60.7,60.7,0,0,1-5.07,10.09A25,25,0,0,0,36.15,305c.06,1.9.14,3.8.21,5.7.33,8.56.67,17.41.16,26.24-.7,12,3.88,17.8,16.33,20.75a52.52,52.52,0,0,0,16.57,1l1.32-.11c3.76-.28,7.65-.57,9.72-3.1,3.62-4.42,6.15-2.43,8.59-.5a4.37,4.37,0,0,0,1.26.54,8.14,8.14,0,0,1,1,.35c2.28,1,3.62,2.2,4.08,3.72s.07,3.18-1.2,5.16a57.13,57.13,0,0,1-3.61,4.89c-.94,1.18-1.92,2.41-2.79,3.66-.74,1.06-.7,1.33-.68,1.37s.16.35,1.52.67c5.16,1.23,10.17,2.56,14.78,5.4s8.84,6,7.75,12c-1.15,6.39.76,11.74,4,17.79,2,3.78,3,6.23,2.28,8.37s-2.89,3.53-6.7,5.37c-3.22,1.56-5.72,3-6.25,5.82a4,4,0,0,1-1.43,2.8,3.66,3.66,0,0,1-2.92.21l-.9-.16c-5.9-.82-10.13.95-12.92,5.43a28.64,28.64,0,0,1-6.16,7.24c-1.29,1.07-1.94,2.24-1.83,3.3s1,2.15,2.62,2.94l.57.29c1.76.88,3.58,1.78,4.73,3.61.1.16.23.31.36.48a3,3,0,0,1,.72,3.45,3.23,3.23,0,0,1-3.35,1.55h-.48a68,68,0,0,1-20.7-2.5c-.38-.11-.77-.24-1.16-.38-1-.36-2.1-.74-2.69-.39s-.84,1.1-1.06,2.39c-.36,2.08-2.14,3.74-3.87,5.36-.42.38-.83.77-1.2,1.15a28.39,28.39,0,0,1-2.88,2.42,28.38,28.38,0,0,0-2.55,2.12c-6.17,6.05-6.29,11.1-.44,17.45a14.48,14.48,0,0,1,3.6,6.47c.55,2.32-.15,5.14-2.56,6-8.54,3.23-14.14,9.57-19.91,18.09-4.14,6.12-8.24,9.93-13.29,12.33-6,2.85-8.14,7.81-6.41,14.73a16,16,0,0,1-.57,10.06C4.27,565.43,4.18,575,4.4,584c.09,4,.45,8.73,2.41,13l.05.09c.31.68.83,1.82,1.22,1.87,0,0,.51,0,1.57-1.14C12.75,594.41,15.21,592.72,17.74,592.72Z" transform="translate(-2.33 -9.63)"/></g></svg>